<svg xmlns="http://www.w3.org/2000/svg" viewBox="0 0 418.38 107.36"><defs><style>.cls-1{fill:#ee8d22;}</style></defs><title>Asset 11</title><g id="Layer_2" data-name="Layer 2"><g id="Layer_1-2" data-name="Layer 1"><line class="cls-1" x1="59.98" y1="54.49" x2="59.98" y2="53.05"/><path class="cls-1" d="M8.3,97.87Q2.87,93.92,2.87,85.52a30.36,30.36,0,0,1,.59-5.84L6.13,64.46a11.22,11.22,0,0,0,.2-2.32,4.11,4.11,0,0,0-1.44-2.87A5.24,5.24,0,0,0,1,57.83H0L2.37,44.39h1a7.62,7.62,0,0,0,4.75-1.68,7.68,7.68,0,0,0,2.76-4.94l2.67-15q2.39-13,11.27-18.19A37,37,0,0,1,43.2,0L40.53,15.13q-10,0-12,11.07L25.8,41.72Q24.53,49.34,19.48,51a3.6,3.6,0,0,1,1.38,1.19,9.08,9.08,0,0,1,1.78,5.93,14.58,14.58,0,0,1-.2,2.37L19.67,76.22a21.4,21.4,0,0,0-.29,3.36q0,7.73,8.4,7.72l-2.67,15.12Q14.73,102.42,8.3,97.87Z"/><path class="cls-1" d="M100.34,44.78a17.46,17.46,0,0,1,.29-3.06L103.4,26.2a20.32,20.32,0,0,0,.3-3.36q0-7.71-8.41-7.71L98,0q10.38,0,16.81,4.55,5.43,3.94,5.44,12.55a29.47,29.47,0,0,1-.6,5.64l-2.67,15a11.19,11.19,0,0,0-.19,2.32A4.09,4.09,0,0,0,118.18,43a5.4,5.4,0,0,0,4,1.44h1L120.8,57.83h-1a7.59,7.59,0,0,0-4.74,1.68,7.71,7.71,0,0,0-2.77,4.95l-2.67,15.22a30.88,30.88,0,0,1-4.15,11.08,21.57,21.57,0,0,1-7.12,7.11,36.7,36.7,0,0,1-18.49,4.55L82.54,87.3q10.08,0,12.06-11.08L97.37,60.5a14.41,14.41,0,0,1,1.93-5.09,13.72,13.72,0,0,1,2.62-3.31A5.14,5.14,0,0,1,103.6,51C101.42,50,100.34,48,100.34,44.78Z"/><polygon class="cls-1" points="45.72 59.14 31.7 59.14 35.83 45.03 50.27 45.03 45.72 59.14"/><polygon class="cls-1" points="65.58 59.14 51.56 59.14 55.69 45.03 70.12 45.03 65.58 59.14"/><polygon class="cls-1" points="85.44 59.14 71.42 59.14 75.55 45.03 89.98 45.03 85.44 59.14"/><path class="cls-1" d="M170,39.67H156.78a3.31,3.31,0,1,1,0-6.61h19.83a6.61,6.61,0,1,0,0-13.22H156.78a16.53,16.53,0,0,0,0,33.06H170a3.31,3.31,0,1,1,0,6.61H146.86a6.62,6.62,0,0,0,0,13.23H170a16.54,16.54,0,0,0,0-33.07Z"/><path class="cls-1" d="M216.71,19.84a26.45,26.45,0,1,0,26.45,26.45A26.51,26.51,0,0,0,216.71,19.84Zm0,39.67a13.23,13.23,0,1,1,13.23-13.22A13.18,13.18,0,0,1,216.71,59.51Z"/><path class="cls-1" d="M274.88,19.84a25.89,25.89,0,0,0-13.22,3.61V6.61a6.62,6.62,0,0,0-13.23,0V66.12a6.62,6.62,0,1,0,13.23,0V46.29a13.23,13.23,0,1,1,26.45,0V66.12a6.61,6.61,0,1,0,13.22,0V46.29A26.5,26.5,0,0,0,274.88,19.84Z"/><path class="cls-1" d="M356.93,57.81a26.65,26.65,0,0,0,2.69-11.52V26.45a6.62,6.62,0,0,0-13.23,0V46.29a13.22,13.22,0,1,1-26.44,0V26.45a6.62,6.62,0,0,0-13.23,0V46.29a26.5,26.5,0,0,0,26.45,26.45,25.27,25.27,0,0,0,13-3.52v0A29.79,29.79,0,0,0,356.93,57.81Z"/><path class="cls-1" d="M391.93,19.84a25.86,25.86,0,0,0-13.22,3.61V6.61a6.62,6.62,0,0,0-13.23,0V46.29a26.32,26.32,0,0,0,3.41,13l-.09,0a29.37,29.37,0,0,0,9.86,10l0-.1a26,26,0,0,0,13.22,3.52,26.45,26.45,0,0,0,0-52.9Zm0,39.67a13.23,13.23,0,1,1,13.22-13.22A13.18,13.18,0,0,1,391.93,59.51Z"/><path class="cls-1" d="M140.11,97.61h1.83v.31a7.56,7.56,0,0,0,.22,2.15,1.59,1.59,0,0,0,.72,1,3.49,3.49,0,0,0,1.22.31q.83.09,3.39.09a10.13,10.13,0,0,0,2.17-.18,2.13,2.13,0,0,0,1.14-.59,1.47,1.47,0,0,0,.31-.74,8.73,8.73,0,0,0,.1-1.43,4.41,4.41,0,0,0-.37-2.29,2,2,0,0,0-1.46-.55l-5-.4a4.63,4.63,0,0,1-3.13-1.13,4.75,4.75,0,0,1-.87-3.22,7.46,7.46,0,0,1,.29-2.29,3.28,3.28,0,0,1,.92-1.44,2.85,2.85,0,0,1,1.39-.62,18.33,18.33,0,0,1,3.14-.18h.58a17.78,17.78,0,0,1,3.54.24,4.07,4.07,0,0,1,1.72.83,2.38,2.38,0,0,1,.7,1.13,6.21,6.21,0,0,1,.22,1.81v.49c0,.12,0,.22,0,.31H151v-.41a6.81,6.81,0,0,0-.11-1.38,1.47,1.47,0,0,0-.33-.71,2.26,2.26,0,0,0-1.22-.47,24,24,0,0,0-3.31-.14c-1.68,0-2.74.19-3.17.57a3,3,0,0,0-.65,2.28,3.25,3.25,0,0,0,.42,1.94,2.23,2.23,0,0,0,1.63.63l5.14.43a4.1,4.1,0,0,1,2.84,1.12,4.78,4.78,0,0,1,.81,3.13,10.28,10.28,0,0,1-.21,2.41,3.2,3.2,0,0,1-.69,1.35,3.24,3.24,0,0,1-1.6.94,16.45,16.45,0,0,1-3.66.27h-.81a14.59,14.59,0,0,1-3.2-.24,3.5,3.5,0,0,1-1.57-.8,3.09,3.09,0,0,1-.91-1.42,7.79,7.79,0,0,1-.29-2.29Z"/><path class="cls-1" d="M160.58,103.09a5.15,5.15,0,0,1-3.62-1,4.87,4.87,0,0,1-1-3.55V95.79a4.93,4.93,0,0,1,1-3.56,5.08,5.08,0,0,1,3.61-1h.8a5.12,5.12,0,0,1,3.63,1,4.89,4.89,0,0,1,1,3.56v2.74a4.86,4.86,0,0,1-1,3.55,5.08,5.08,0,0,1-3.6,1Zm3.67-4.94v-2a4.52,4.52,0,0,0-.55-2.78,3.26,3.26,0,0,0-2.34-.6h-.8a3.22,3.22,0,0,0-2.31.59,4.65,4.65,0,0,0-.54,2.79v2a4.57,4.57,0,0,0,.55,2.8,3.21,3.21,0,0,0,2.3.59h.8a3.25,3.25,0,0,0,2.33-.6A4.51,4.51,0,0,0,164.25,98.15Z"/><path class="cls-1" d="M169.11,102.94V86.58h1.7v16.36Z"/><path class="cls-1" d="M183.79,91.37v11.57h-1.65v-1.58a2.63,2.63,0,0,1-1.34,1.31,6,6,0,0,1-2.46.42,4.4,4.4,0,0,1-3.17-.92,4.48,4.48,0,0,1-.91-3.21V91.37H176V98.6a3.62,3.62,0,0,0,.54,2.37,2.87,2.87,0,0,0,2.09.57,3.61,3.61,0,0,0,2.63-.82,3.54,3.54,0,0,0,.83-2.62V91.37Z"/><path class="cls-1" d="M186.17,92.83V91.37h1.42v-2.6h1.71v2.6H195v1.46H189.3V99.2a2.78,2.78,0,0,0,.45,1.85,2.23,2.23,0,0,0,1.69.49,2.29,2.29,0,0,0,1.68-.47,2.89,2.89,0,0,0,.43-1.87v-.34h1.74V99c0,1.63-.27,2.72-.81,3.28s-1.66.85-3.35.85a3.53,3.53,0,0,1-2.77-.9,5.06,5.06,0,0,1-.77-3.23V92.83Z"/><path class="cls-1" d="M198.42,88.52V86.58h1.7v1.94Zm0,14.42V91.37h1.7v11.57Z"/><path class="cls-1" d="M207.86,103.09a5.14,5.14,0,0,1-3.62-1,4.87,4.87,0,0,1-1-3.55V95.79a4.93,4.93,0,0,1,1-3.56,5.08,5.08,0,0,1,3.61-1h.8a5.12,5.12,0,0,1,3.63,1,4.93,4.93,0,0,1,1,3.56v2.74a4.86,4.86,0,0,1-1,3.55,5.11,5.11,0,0,1-3.61,1Zm3.67-4.94v-2a4.59,4.59,0,0,0-.55-2.78,3.26,3.26,0,0,0-2.34-.6h-.8a3.22,3.22,0,0,0-2.31.59,4.63,4.63,0,0,0-.55,2.79v2a4.65,4.65,0,0,0,.55,2.8,3.26,3.26,0,0,0,2.31.59h.8a3.25,3.25,0,0,0,2.33-.6A4.58,4.58,0,0,0,211.53,98.15Z"/><path class="cls-1" d="M216.38,102.94V91.37H218V93a2.63,2.63,0,0,1,1.34-1.31,6,6,0,0,1,2.44-.42,4.41,4.41,0,0,1,3.18.91,4.54,4.54,0,0,1,.91,3.23v7.58h-1.71V95.72a3.71,3.71,0,0,0-.53-2.38,2.85,2.85,0,0,0-2.07-.57,3.62,3.62,0,0,0-2.65.83,3.53,3.53,0,0,0-.84,2.61v6.73Z"/><path class="cls-1" d="M237.14,102.94V86.58h1.8v7.06h9.42V86.58h1.81v16.36h-1.81V95.36h-9.42v7.58Z"/><path class="cls-1" d="M263.34,91.37v11.57H261.7v-1.58a2.63,2.63,0,0,1-1.34,1.31,6.11,6.11,0,0,1-2.46.42,4.43,4.43,0,0,1-3.18-.92,4.53,4.53,0,0,1-.91-3.21V91.37h1.7V98.6a3.62,3.62,0,0,0,.54,2.37,2.9,2.9,0,0,0,2.1.57,3,3,0,0,0,3.46-3.44V91.37Z"/><path class="cls-1" d="M266.9,102.94V86.58h1.7V93a3,3,0,0,1,1.34-1.38,5.11,5.11,0,0,1,2.27-.42,4.81,4.81,0,0,1,3.48,1,4.94,4.94,0,0,1,1,3.55v2.74a4.93,4.93,0,0,1-1,3.54,4.81,4.81,0,0,1-3.48,1,5.13,5.13,0,0,1-2.38-.47,2.86,2.86,0,0,1-1.29-1.46v1.78Zm1.7-6.73V98.1a3.52,3.52,0,0,0,.84,2.62,3.74,3.74,0,0,0,2.7.82,3.08,3.08,0,0,0,2.24-.6,4.6,4.6,0,0,0,.55-2.79v-2a4.59,4.59,0,0,0-.55-2.8,3.08,3.08,0,0,0-2.24-.6,3.79,3.79,0,0,0-2.7.81A3.56,3.56,0,0,0,268.6,96.21Z"/><path class="cls-1" d="M285.36,88.32V86.58h12.25v1.74h-5.23v14.62h-1.81V88.32Z"/><path class="cls-1" d="M299.71,103.09a5.17,5.17,0,0,1-3.63-1,4.87,4.87,0,0,1-1-3.55V95.79a4.89,4.89,0,0,1,1-3.56,5,5,0,0,1,3.6-1h.81a5.1,5.1,0,0,1,3.62,1,4.89,4.89,0,0,1,1,3.56v1.74h-8.31c0,.12,0,.25,0,.39v.6a3.61,3.61,0,0,0,.57,2.4,3.17,3.17,0,0,0,2.3.61h.81a3.85,3.85,0,0,0,2.15-.44,2.06,2.06,0,0,0,.7-1.56h1.78a3.54,3.54,0,0,1-1.21,2.71,5.54,5.54,0,0,1-3.4.84ZM296.83,96h6.54v-.45a3.13,3.13,0,0,0-.58-2.21,3.3,3.3,0,0,0-2.3-.58h-.81a3.24,3.24,0,0,0-2.28.58,3.19,3.19,0,0,0-.57,2.21Z"/><path class="cls-1" d="M312.41,103.09a5.14,5.14,0,0,1-3.62-1,4.87,4.87,0,0,1-1-3.55V95.79a4.93,4.93,0,0,1,1-3.56,5.08,5.08,0,0,1,3.61-1h.8a5.33,5.33,0,0,1,3.53.94,4,4,0,0,1,1.13,3.08h-1.77a2.69,2.69,0,0,0-.64-1.93,3.4,3.4,0,0,0-2.25-.53h-.8a3.22,3.22,0,0,0-2.31.59,4.63,4.63,0,0,0-.55,2.79v2a4.65,4.65,0,0,0,.55,2.8,3.26,3.26,0,0,0,2.31.59h.8a3.32,3.32,0,0,0,2.29-.58,2.86,2.86,0,0,0,.6-2.1v-.2h1.77v.22a4.22,4.22,0,0,1-1.07,3.24,5.26,5.26,0,0,1-3.57,1Z"/><path class="cls-1" d="M320.93,102.94V86.58h1.64V93a2.67,2.67,0,0,1,1.34-1.31,6,6,0,0,1,2.44-.42,4.41,4.41,0,0,1,3.18.91,4.53,4.53,0,0,1,.92,3.23v7.58h-1.72V95.72a3.71,3.71,0,0,0-.53-2.38,2.85,2.85,0,0,0-2.07-.57,3.66,3.66,0,0,0-2.65.82,3.54,3.54,0,0,0-.84,2.62v6.73Z"/><path class="cls-1" d="M333.89,102.94V91.37h1.64V93a2.63,2.63,0,0,1,1.34-1.31,5.94,5.94,0,0,1,2.44-.42,4.43,4.43,0,0,1,3.18.91,4.54,4.54,0,0,1,.91,3.23v7.58h-1.71V95.72a3.71,3.71,0,0,0-.53-2.38,2.85,2.85,0,0,0-2.07-.57,3.62,3.62,0,0,0-2.65.83,3.53,3.53,0,0,0-.84,2.61v6.73Z"/><path class="cls-1" d="M351,103.09a5.17,5.17,0,0,1-3.63-1,4.87,4.87,0,0,1-1-3.55V95.79a4.89,4.89,0,0,1,1-3.56,5,5,0,0,1,3.6-1h.81a5.1,5.1,0,0,1,3.62,1,4.89,4.89,0,0,1,1,3.56v2.74a4.9,4.9,0,0,1-1,3.55,5.12,5.12,0,0,1-3.61,1Zm3.67-4.94v-2a4.5,4.5,0,0,0-.56-2.78,3.25,3.25,0,0,0-2.33-.6H351a3.26,3.26,0,0,0-2.31.59,4.65,4.65,0,0,0-.54,2.79v2a4.57,4.57,0,0,0,.55,2.8,3.21,3.21,0,0,0,2.3.59h.81a3.22,3.22,0,0,0,2.32-.6A4.49,4.49,0,0,0,354.71,98.15Z"/><path class="cls-1" d="M359.56,102.94V86.58h1.7v16.36Z"/><path class="cls-1" d="M369,103.09a5.15,5.15,0,0,1-3.62-1,4.87,4.87,0,0,1-1-3.55V95.79a4.93,4.93,0,0,1,1-3.56,5.08,5.08,0,0,1,3.61-1h.8a5.12,5.12,0,0,1,3.63,1,4.89,4.89,0,0,1,1,3.56v2.74a4.86,4.86,0,0,1-1,3.55,5.08,5.08,0,0,1-3.6,1Zm3.67-4.94v-2a4.52,4.52,0,0,0-.55-2.78,3.26,3.26,0,0,0-2.34-.6H369a3.22,3.22,0,0,0-2.31.59,4.65,4.65,0,0,0-.54,2.79v2a4.57,4.57,0,0,0,.55,2.8,3.21,3.21,0,0,0,2.3.59h.8a3.25,3.25,0,0,0,2.33-.6A4.58,4.58,0,0,0,372.67,98.15Z"/><path class="cls-1" d="M387.19,91.37V102.8a5,5,0,0,1-1,3.56,4.88,4.88,0,0,1-3.51,1h-.79a5.35,5.35,0,0,1-3.31-.82,3.65,3.65,0,0,1-1.19-2.73h1.75a2.08,2.08,0,0,0,.69,1.55,3.6,3.6,0,0,0,2.08.43h.77a3.62,3.62,0,0,0,2.16-.49,1.92,1.92,0,0,0,.65-1.62v-2.39a3,3,0,0,1-1.32,1.38,5.18,5.18,0,0,1-2.28.42,4.84,4.84,0,0,1-3.49-1,5,5,0,0,1-1-3.54V95.79a5,5,0,0,1,1-3.55,4.84,4.84,0,0,1,3.49-1,5.1,5.1,0,0,1,2.36.47,2.79,2.79,0,0,1,1.3,1.48v-1.8Zm-1.7,6.73V96.21a3.56,3.56,0,0,0-.84-2.63,3.79,3.79,0,0,0-2.7-.81,3,3,0,0,0-2.24.61,4.45,4.45,0,0,0-.57,2.79v2a4.44,4.44,0,0,0,.57,2.78,3,3,0,0,0,2.24.61,3.74,3.74,0,0,0,2.7-.82A3.52,3.52,0,0,0,385.49,98.1Z"/><path class="cls-1" d="M390.75,88.52V86.58h1.7v1.94Zm0,14.42V91.37h1.7v11.57Z"/><path class="cls-1" d="M400.19,103.09a5.14,5.14,0,0,1-3.62-1,4.87,4.87,0,0,1-1-3.55V95.79a4.93,4.93,0,0,1,1-3.56,5.08,5.08,0,0,1,3.61-1h.8a5.12,5.12,0,0,1,3.63,1,4.93,4.93,0,0,1,1,3.56v1.74h-8.31c0,.12,0,.25,0,.39s0,.35,0,.6a3.61,3.61,0,0,0,.57,2.4,3.18,3.18,0,0,0,2.31.61h.8a3.83,3.83,0,0,0,2.15-.44,2.06,2.06,0,0,0,.71-1.56h1.78a3.54,3.54,0,0,1-1.21,2.71,5.55,5.55,0,0,1-3.41.84ZM397.32,96h6.54v-.45a3.13,3.13,0,0,0-.58-2.21,3.33,3.33,0,0,0-2.31-.58h-.8a3.24,3.24,0,0,0-2.28.58,3.19,3.19,0,0,0-.57,2.21Z"/><path class="cls-1" d="M408.29,99.5H410v.26a1.58,1.58,0,0,0,.66,1.47,5.88,5.88,0,0,0,2.65.4,5.46,5.46,0,0,0,2.74-.41,1.9,1.9,0,0,0,.52-1.57,2,2,0,0,0-.42-1.51,4,4,0,0,0-2.12-.46c-.41,0-1-.05-1.69-.07a8.54,8.54,0,0,1-2.77-.32,2.09,2.09,0,0,1-.94-1,4.7,4.7,0,0,1-.28-1.8,3,3,0,0,1,1-2.6c.65-.46,2.09-.68,4.31-.68a6.5,6.5,0,0,1,3.5.65,2.59,2.59,0,0,1,.91,2.27h-1.71V94a1.05,1.05,0,0,0-.67-1.06,7.83,7.83,0,0,0-2.64-.29,5.27,5.27,0,0,0-2.43.35c-.36.23-.53.72-.53,1.47a3.07,3.07,0,0,0,.1,1,.71.71,0,0,0,.35.41,6,6,0,0,0,2.28.32l.69,0q1.46.06,2.28.15a4.28,4.28,0,0,1,1.17.26,2.23,2.23,0,0,1,1.1,1,5.92,5.92,0,0,1,0,3.84,2.88,2.88,0,0,1-1.14,1.17,2.94,2.94,0,0,1-1.22.34,20,20,0,0,1-2.35.11c-2.05,0-3.41-.24-4.07-.71a3,3,0,0,1-1-2.57Z"/></g></g></svg>