<?xml version="1.0" standalone="no"?>
<!DOCTYPE svg PUBLIC "-//W3C//DTD SVG 20010904//EN"
 "http://www.w3.org/TR/2001/REC-SVG-20010904/DTD/svg10.dtd">
<svg version="1.0" xmlns="http://www.w3.org/2000/svg"
 width="205.000000pt" height="205.000000pt" viewBox="0 0 205.000000 205.000000"
 preserveAspectRatio="xMidYMid meet">

<g transform="translate(0.000000,205.000000) scale(0.100000,-0.100000)"
fill="#000000" stroke="none">
<path d="M968 1600 c-30 -31 -34 -55 -13 -102 6 -16 -1 -18 -87 -18 -144 0
-238 -30 -343 -110 -53 -41 -115 -116 -143 -174 -11 -23 -33 -44 -62 -59 -30
-16 -55 -40 -75 -72 -26 -42 -30 -58 -29 -114 0 -40 7 -78 17 -97 18 -35 76
-89 106 -99 11 -3 34 -31 52 -62 40 -72 128 -160 200 -201 104 -59 183 -72
434 -72 246 0 327 13 428 67 68 37 166 134 206 204 21 37 42 61 61 69 43 18
97 82 110 132 25 92 -19 203 -95 242 -29 15 -51 38 -75 80 -71 121 -195 217
-325 251 -33 8 -101 15 -153 15 -86 0 -93 2 -87 18 21 47 17 71 -13 102 -19
18 -41 30 -57 30 -16 0 -38 -12 -57 -30z m86 -45 c4 -12 -17 -45 -29 -45 -2 0
-10 7 -19 15 -20 20 -10 45 19 45 13 0 25 -7 29 -15z m261 -139 c126 -33 255
-137 309 -248 19 -38 35 -58 51 -62 39 -10 82 -54 101 -101 14 -39 15 -51 4
-90 -15 -55 -57 -103 -97 -111 -23 -4 -35 -18 -61 -69 -59 -112 -168 -203
-292 -242 -81 -26 -529 -26 -610 0 -124 39 -233 130 -292 242 -26 51 -38 65
-61 69 -38 8 -80 54 -96 105 -22 76 22 166 95 193 28 10 41 24 62 67 54 109
156 195 282 238 60 21 83 22 310 23 173 0 260 -4 295 -14z"/>
<path d="M734 1222 c-232 -81 -260 -394 -45 -520 l46 -27 290 0 290 0 45 27
c169 100 200 317 64 452 -78 78 -114 86 -397 86 -204 -1 -250 -3 -293 -18z
m224 -106 c15 -8 36 -24 46 -35 l19 -21 26 24 c39 36 65 46 116 46 70 0 124
-35 151 -99 28 -68 14 -116 -59 -203 -34 -40 -46 -48 -74 -48 l-35 0 61 70
c68 79 82 120 57 168 -22 42 -53 62 -99 62 -49 0 -92 -30 -107 -74 -16 -49 7
-109 52 -132 24 -12 27 -18 18 -34 -15 -28 -33 -25 -70 10 -18 17 -35 30 -39
30 -3 -1 -24 -23 -46 -50 -34 -42 -45 -50 -74 -50 l-34 0 19 23 c10 12 36 41
57 65 51 57 61 87 48 134 -30 100 -171 106 -211 8 -19 -47 1 -105 46 -132 l36
-21 -21 -20 -20 -20 -35 26 c-20 16 -41 45 -52 73 -40 106 35 214 149 214 26
0 60 -6 75 -14z m-34 -105 c25 -27 17 -72 -15 -90 -24 -13 -29 -13 -53 2 -17
12 -26 26 -26 44 0 55 59 83 94 44z m289 -13 c19 -25 19 -28 4 -52 -22 -33
-52 -41 -82 -22 -33 22 -34 69 -2 91 30 21 56 16 80 -17z"/>
</g>
</svg>
