<svg xmlns="http://www.w3.org/2000/svg" viewBox="0 0 184.46 153.38"><defs><style>.cls-1{fill:#ee8d22;}</style></defs><title>Asset 13</title><g id="Layer_2" data-name="Layer 2"><g id="Layer_1-2" data-name="Layer 1"><line class="cls-1" x1="89.83" y1="81.61" x2="89.83" y2="79.45"/><path class="cls-1" d="M12.44,146.57q-8.14-5.92-8.15-18.5a46.2,46.2,0,0,1,.89-8.74l4-22.8a16.4,16.4,0,0,0,.3-3.48,6.19,6.19,0,0,0-2.15-4.29,7.91,7.91,0,0,0-5.85-2.15H0L3.55,66.47H5A11.35,11.35,0,0,0,12.14,64a11.6,11.6,0,0,0,4.15-7.4l4-22.51Q23.83,14.51,37.16,6.81A55.3,55.3,0,0,1,64.7,0l-4,22.65q-15,0-17.91,16.58L38.64,62.48q-1.92,11.4-9.47,13.92a5.17,5.17,0,0,1,2.07,1.77C33,80.34,33.9,83.3,33.9,87.05a22.49,22.49,0,0,1-.29,3.56l-4.15,23.54a31.22,31.22,0,0,0-.44,5q0,11.55,12.58,11.55l-4,22.65Q22.06,153.38,12.44,146.57Z"/><path class="cls-1" d="M150.26,67.07a27.23,27.23,0,0,1,.44-4.59l4.15-23.25a31.22,31.22,0,0,0,.44-5q0-11.55-12.58-11.55l4-22.65q15.54,0,25.16,6.81Q180,12.74,180,25.61a44.84,44.84,0,0,1-.89,8.44l-4,22.51a16.29,16.29,0,0,0-.3,3.47,6.19,6.19,0,0,0,2.15,4.3,8.11,8.11,0,0,0,6,2.14h1.48l-3.55,20.14h-1.48a11.36,11.36,0,0,0-7.11,2.52,11.57,11.57,0,0,0-4.15,7.4l-4,22.8A46.14,46.14,0,0,1,158,135.91a32.39,32.39,0,0,1-10.66,10.66q-12,6.81-27.69,6.81l4-22.65q15.11,0,18.06-16.58l4.15-23.54A21.54,21.54,0,0,1,148.7,83a20.63,20.63,0,0,1,3.93-5,7.48,7.48,0,0,1,2.51-1.62Q150.26,74.16,150.26,67.07Z"/><polygon class="cls-1" points="68.47 88.56 47.48 88.56 53.65 67.44 75.28 67.44 68.47 88.56"/><polygon class="cls-1" points="98.21 88.56 77.22 88.56 83.39 67.44 105.02 67.44 98.21 88.56"/><polygon class="cls-1" points="127.95 88.56 106.95 88.56 113.13 67.44 134.75 67.44 127.95 88.56"/></g></g></svg>